<mxfile host="app.diagrams.net" modified="2022-09-23T14:26:46.364Z" agent="5.0 (Windows NT 10.0; Win64; x64) AppleWebKit/537.36 (KHTML, like Gecko) Chrome/105.0.0.0 Safari/537.36" etag="sL5Ryj4s46KPWtyOSurF" version="20.3.6" type="github">
  <diagram id="Y92jz6zEd6ns6cNTtrSx" name="第 1 页">
    <mxGraphModel dx="1038" dy="617" grid="1" gridSize="10" guides="0" tooltips="1" connect="1" arrows="1" fold="1" page="1" pageScale="1" pageWidth="2000" pageHeight="2000" math="0" shadow="0">
      <root>
        <mxCell id="0" />
        <mxCell id="1" parent="0" />
        <mxCell id="pG15URxhRHCQtoVa6i9T-1" value="学习" style="rounded=1;whiteSpace=wrap;html=1;" vertex="1" parent="1">
          <mxGeometry x="310" y="640" width="120" height="60" as="geometry" />
        </mxCell>
        <mxCell id="pG15URxhRHCQtoVa6i9T-2" value="理解" style="rounded=1;whiteSpace=wrap;html=1;" vertex="1" parent="1">
          <mxGeometry x="670" y="640" width="120" height="60" as="geometry" />
        </mxCell>
        <mxCell id="pG15URxhRHCQtoVa6i9T-3" value="记忆" style="rounded=1;whiteSpace=wrap;html=1;" vertex="1" parent="1">
          <mxGeometry x="660" y="890" width="120" height="60" as="geometry" />
        </mxCell>
        <mxCell id="pG15URxhRHCQtoVa6i9T-4" value="复习" style="rounded=1;whiteSpace=wrap;html=1;" vertex="1" parent="1">
          <mxGeometry x="310" y="890" width="120" height="60" as="geometry" />
        </mxCell>
        <mxCell id="pG15URxhRHCQtoVa6i9T-5" value="" style="shape=singleArrow;whiteSpace=wrap;html=1;arrowWidth=0.4;arrowSize=0.4;" vertex="1" parent="1">
          <mxGeometry x="510" y="640" width="80" height="60" as="geometry" />
        </mxCell>
        <mxCell id="pG15URxhRHCQtoVa6i9T-6" value="" style="shape=singleArrow;whiteSpace=wrap;html=1;arrowWidth=0.4;arrowSize=0.4;rotation=90;" vertex="1" parent="1">
          <mxGeometry x="710" y="740" width="80" height="60" as="geometry" />
        </mxCell>
        <mxCell id="pG15URxhRHCQtoVa6i9T-7" value="" style="shape=singleArrow;whiteSpace=wrap;html=1;arrowWidth=0.4;arrowSize=0.4;rotation=-180;" vertex="1" parent="1">
          <mxGeometry x="510" y="870" width="80" height="60" as="geometry" />
        </mxCell>
        <mxCell id="pG15URxhRHCQtoVa6i9T-8" value="" style="shape=singleArrow;whiteSpace=wrap;html=1;arrowWidth=0.4;arrowSize=0.4;rotation=-90;" vertex="1" parent="1">
          <mxGeometry x="330" y="770" width="80" height="60" as="geometry" />
        </mxCell>
      </root>
    </mxGraphModel>
  </diagram>
</mxfile>
